<?xml version="1.0" encoding="UTF-8" standalone="no"?>
<!-- Generator: Adobe Illustrator 17.0.0, SVG Export Plug-In . SVG Version: 6.00 Build 0)  -->

<svg
   xmlns:dc="http://purl.org/dc/elements/1.1/"
   xmlns:cc="http://creativecommons.org/ns#"
   xmlns:rdf="http://www.w3.org/1999/02/22-rdf-syntax-ns#"
   xmlns:svg="http://www.w3.org/2000/svg"
   xmlns="http://www.w3.org/2000/svg"
   xmlns:sodipodi="http://sodipodi.sourceforge.net/DTD/sodipodi-0.dtd"
   xmlns:inkscape="http://www.inkscape.org/namespaces/inkscape"
   version="1.1"
   id="Layer_1"
   x="0px"
   y="0px"
   width="14.5cm"
   height="22cm"
   viewBox="0 0 513.77951 779.52753"
   enable-background="new 0 0 396.85 595.28"
   xml:space="preserve"
   inkscape:version="0.91 r13725"
   sodipodi:docname="ForroColecciónBeta.svg"><metadata
     id="metadata253"><rdf:RDF><cc:Work
         rdf:about=""><dc:format>image/svg+xml</dc:format><dc:type
           rdf:resource="http://purl.org/dc/dcmitype/StillImage" /><dc:title></dc:title></cc:Work></rdf:RDF></metadata><defs
     id="defs251" /><sodipodi:namedview
     pagecolor="#ffffff"
     bordercolor="#666666"
     borderopacity="1"
     objecttolerance="10"
     gridtolerance="10"
     guidetolerance="10"
     inkscape:pageopacity="0"
     inkscape:pageshadow="2"
     inkscape:window-width="1280"
     inkscape:window-height="755"
     id="namedview249"
     showgrid="false"
     units="cm"
     inkscape:zoom="0.39645207"
     inkscape:cx="236.87923"
     inkscape:cy="372.8312"
     inkscape:window-x="0"
     inkscape:window-y="0"
     inkscape:window-maximized="0"
     inkscape:current-layer="layer2"
     showguides="true"
     inkscape:guide-bbox="true"><sodipodi:guide
       position="0,761.81097"
       orientation="0,1"
       id="guide8238"
       inkscape:label=""
       inkscape:color="rgb(0,0,255)" /><sodipodi:guide
       position="496.06296,17.716999"
       orientation="0,1"
       id="guide8240"
       inkscape:label=""
       inkscape:color="rgb(0,0,255)" /><sodipodi:guide
       position="496.06296,761.81097"
       orientation="1,0"
       id="guide8242"
       inkscape:label=""
       inkscape:color="rgb(0,0,255)" /><sodipodi:guide
       position="0,17.716534"
       orientation="1,0"
       id="guide8265"
       inkscape:label=""
       inkscape:color="rgb(0,0,255)" /><sodipodi:guide
       position="-35.433069,70.866136"
       orientation="0,1"
       id="guide8578"
       inkscape:label=""
       inkscape:color="rgb(0,0,255)" /><sodipodi:guide
       position="-35.433069,708.66136"
       orientation="0,1"
       id="guide8580"
       inkscape:label=""
       inkscape:color="rgb(0,0,255)" /><sodipodi:guide
       position="-35.433069,761.81097"
       orientation="1,0"
       id="guide8584"
       inkscape:label=""
       inkscape:color="rgb(0,0,255)" /><sodipodi:guide
       position="-531.49597,761.81097"
       orientation="1,0"
       id="guide8656"
       inkscape:label=""
       inkscape:color="rgb(0,0,255)" /><sodipodi:guide
       position="-549.21257,779.5275"
       orientation="0,1"
       id="guide8658"
       inkscape:label=""
       inkscape:color="rgb(255,0,0)" /><sodipodi:guide
       position="513.7795,0"
       orientation="0,1"
       id="guide8660"
       inkscape:label=""
       inkscape:color="rgb(255,0,0)" /><sodipodi:guide
       position="-549.21257,0"
       orientation="1,0"
       id="guide8662"
       inkscape:label=""
       inkscape:color="rgb(255,0,0)" /><sodipodi:guide
       position="513.7795,779.5275"
       orientation="1,0"
       id="guide8668"
       inkscape:label=""
       inkscape:color="rgb(255,0,0)" /></sodipodi:namedview><text
     xml:space="preserve"
     style="font-style:normal;font-weight:normal;font-size:40px;line-height:125%;font-family:Sans;letter-spacing:0px;word-spacing:0px;fill:#000000;fill-opacity:1;stroke:none;stroke-width:1px;stroke-linecap:butt;stroke-linejoin:miter;stroke-opacity:1"
     x="299.64261"
     y="569.06421"
     id="text8190"
     sodipodi:linespacing="125%"><tspan
       sodipodi:role="line"
       id="tspan8192"
       x="299.64261"
       y="569.06421"></tspan></text>
<g
     inkscape:groupmode="layer"
     id="layer2"
     inkscape:label="contraporta"><rect
       x="-549.21252"
       y="-3.0789036e-07"
       width="513.77948"
       height="779.52747"
       id="rect5"
       style="fill:#f8f8f8" /><g
       id="g97"
       transform="matrix(1.2500013,0,0,1.2500013,-3.5066384,18.962745)"><g
         id="g99"><g
           id="g101"><path
             d="m -233.622,295.793 c 0.95,-0.847 1.958,-1.667 2.93,-2.458 2.27,-1.839 4.616,-3.742 6.3,-6.13 0.458,-0.648 0.858,-1.341 1.232,-2.054 -0.231,0.075 -0.364,0.117 -0.376,0.122 -0.192,0.067 -0.415,0.107 -0.643,0.107 -0.842,0 -1.557,-0.551 -1.662,-1.275 -0.141,-0.771 0.557,-1.348 1.41,-1.965 l 3.005,-2.32 c -0.922,-1.352 -1.673,-2.732 -2.283,-4.202 -0.878,-2.086 -1.71,-4.053 -1.551,-6.184 0.28,-4.707 4.819,-7.841 7.504,-9.29 1.335,-0.753 4.142,-2.331 7.153,-2.331 0.8,0 1.566,0.117 2.282,0.344 -4.755,-7.31 -12.99,-12.146 -22.359,-12.146 -14.728,0 -26.666,11.939 -26.666,26.662 0,12.703 8.879,23.317 20.767,26.005 0.927,-0.991 1.904,-1.956 2.957,-2.885 z"
             id="path103"
             inkscape:connector-curvature="0"
             style="fill:#404041" /></g><g
           id="g105"><path
             d="m -195.91,265.382 c -0.065,0 -0.219,0.026 -0.538,0.211 l -4.277,2.521 c -0.156,0.091 -0.338,0.112 -0.507,0.058 -0.168,-0.053 -0.306,-0.176 -0.381,-0.337 -0.709,-1.576 -1.538,-2.972 -2.526,-4.272 l -0.047,-0.053 c -1.326,-1.718 -2.476,-3.195 -4.108,-3.93 -0.76,-0.345 -1.607,-0.517 -2.514,-0.517 -2.686,0 -5.296,1.471 -6.55,2.174 -1.985,1.074 -6.608,4.014 -6.862,8.278 -0.136,1.842 0.601,3.591 1.453,5.617 0.653,1.562 1.466,3.02 2.495,4.459 0.197,0.272 0.141,0.652 -0.125,0.858 l -3.493,2.692 c -0.652,0.474 -0.86,0.692 -0.913,0.796 0.042,0.083 0.188,0.193 0.419,0.193 0.083,0 0.164,-0.013 0.248,-0.044 0.119,-0.037 9.582,-2.965 16.732,-7.869 4.33,-2.959 8.154,-6.386 11.374,-10.19 0.231,-0.268 0.294,-0.525 0.237,-0.585 -0.057,-0.06 -0.088,-0.06 -0.117,-0.06 z"
             id="path107"
             inkscape:connector-curvature="0"
             style="fill:#404041" /></g><g
           id="g109"><g
             enable-background="new    "
             id="g111"><path
               d="m -227.051,344.096 c -0.106,-0.213 -0.148,-0.48 -0.148,-0.789 l 0,-3.523 -1.054,0 0,-0.814 1.054,0 0,-1.375 0.908,-0.361 0,1.736 1.751,0 0,0.814 -1.751,0 0,3.389 c 0,0.189 0.028,0.32 0.092,0.443 0.106,0.199 0.32,0.293 0.67,0.293 0.333,0 0.747,-0.162 1.066,-0.348 l -0.119,0.881 c -0.295,0.16 -0.695,0.32 -1.214,0.32 -0.603,0 -1.033,-0.227 -1.255,-0.666 z"
               id="path113"
               inkscape:connector-curvature="0"
               style="fill:#404041" /><path
               d="m -219.095,339.607 c 0,0.361 -0.282,0.684 -0.644,0.684 -0.344,0 -0.585,-0.23 -0.679,-0.48 -0.428,0.119 -0.947,0.627 -1.226,1.201 l 0,2.842 1.063,0 0,0.801 -2.896,0 0,-0.801 0.907,0 0,-4.07 -0.907,0 0,-0.814 1.789,0 0,1.295 c 0.441,-0.789 1.122,-1.404 1.735,-1.404 0.564,-0.002 0.858,0.36 0.858,0.746 z"
               id="path115"
               inkscape:connector-curvature="0"
               style="fill:#404041" /><path
               d="m -218.376,343.853 0.96,0 0,-4.07 -0.96,0 0,-0.814 1.882,0 0,4.885 0.963,0 0,0.801 -2.845,0 0,-0.802 z m 0.557,-7.076 c 0,-0.402 0.35,-0.746 0.753,-0.746 0.381,0 0.719,0.344 0.719,0.746 0,0.402 -0.347,0.734 -0.735,0.734 -0.399,10e-4 -0.737,-0.331 -0.737,-0.734 z"
               id="path117"
               inkscape:connector-curvature="0"
               style="fill:#404041" /><path
               d="m -210.738,340.717 c -0.351,0 -0.616,-0.24 -0.616,-0.588 0,-0.096 0.016,-0.213 0.066,-0.318 -0.197,-0.137 -0.572,-0.203 -1.001,-0.203 -0.788,0 -1.241,0.416 -1.241,0.83 0,0.492 0.519,0.666 1.454,0.906 1.148,0.279 2.11,0.602 2.11,1.709 0,1.08 -1.057,1.709 -2.27,1.709 -0.829,0 -1.67,-0.268 -2.057,-0.654 -0.2,-0.199 -0.304,-0.428 -0.304,-0.707 0,-0.336 0.238,-0.629 0.569,-0.629 0.362,0 0.616,0.242 0.616,0.59 0,0.117 -0.041,0.225 -0.094,0.344 0.188,0.148 0.653,0.322 1.27,0.322 0.775,0 1.385,-0.334 1.385,-0.881 0,-0.522 -0.531,-0.723 -1.348,-0.922 -1.372,-0.344 -2.226,-0.668 -2.226,-1.721 0,-0.854 0.803,-1.645 2.16,-1.645 0.763,0 1.441,0.24 1.788,0.588 0.2,0.203 0.294,0.414 0.294,0.654 0.001,0.362 -0.239,0.616 -0.555,0.616 z"
               id="path119"
               inkscape:connector-curvature="0"
               style="fill:#404041" /><path
               d="m -207.953,344.096 c -0.106,-0.213 -0.144,-0.48 -0.144,-0.789 l 0,-3.523 -1.057,0 0,-0.814 1.057,0 0,-1.375 0.907,-0.361 0,1.736 1.748,0 0,0.814 -1.748,0 0,3.389 c 0,0.189 0.025,0.32 0.09,0.443 0.106,0.199 0.322,0.293 0.669,0.293 0.335,0 0.75,-0.162 1.069,-0.348 l -0.122,0.881 c -0.291,0.16 -0.694,0.32 -1.213,0.32 -0.599,0 -1.027,-0.227 -1.256,-0.666 z"
               id="path121"
               inkscape:connector-curvature="0"
               style="fill:#404041" /><path
               d="m -203.454,342.076 c 0.138,1.256 0.963,1.871 2.188,1.871 0.763,0 1.335,-0.242 2.004,-0.629 l -0.081,0.895 c -0.588,0.363 -1.323,0.549 -2.042,0.549 -1.816,0 -3.03,-1.201 -3.03,-2.938 0,-1.574 1.054,-2.965 2.789,-2.965 1.694,0 2.604,1.27 2.604,2.685 0,0.213 -0.012,0.385 -0.053,0.531 l -4.379,0 z m 0.016,-0.732 3.483,0 c -0.066,-1 -0.641,-1.693 -1.723,-1.693 -0.869,-0.001 -1.629,0.613 -1.76,1.693 z"
               id="path123"
               inkscape:connector-curvature="0"
               style="fill:#404041" /></g><g
             id="g125"><path
               d="m -256.973,346.832 0.974,0 0,-7.289 -0.974,0 0,-0.443 1.454,0 0,0.924 c 0.506,-0.592 1.192,-1.016 2.071,-1.016 1.493,0 2.644,1.174 2.644,2.855 0,1.603 -1.106,2.885 -2.737,2.885 -0.747,0 -1.454,-0.322 -1.96,-0.771 l 0,2.855 1.064,0 0,0.438 -2.536,0 0,-0.438 z m 5.662,-4.969 c 0,-1.416 -0.883,-2.416 -2.167,-2.416 -0.849,0 -1.505,0.43 -2.024,1.029 l 0,3.027 c 0.489,0.457 1.133,0.801 1.973,0.801 1.31,0.001 2.203,-1.052 2.218,-2.441 z"
               id="path127"
               inkscape:connector-curvature="0"
               style="fill:#404041" /><path
               d="m -249.055,341.93 c 0.053,1.549 0.987,2.375 2.389,2.375 0.747,0 1.351,-0.25 1.934,-0.637 l -0.039,0.506 c -0.536,0.361 -1.23,0.574 -1.949,0.574 -1.693,0 -2.842,-1.133 -2.842,-2.885 0,-1.572 1.091,-2.855 2.628,-2.855 1.591,0 2.471,1.242 2.471,2.602 0,0.137 -0.014,0.242 -0.039,0.32 l -4.553,0 z m 0.011,-0.428 4.072,0 c -0.053,-1.145 -0.722,-2.055 -2.002,-2.055 -1.07,0 -1.948,0.828 -2.07,2.055 z"
               id="path129"
               inkscape:connector-curvature="0"
               style="fill:#404041" /><path
               d="m -239.566,339.543 c 0,0.24 -0.173,0.439 -0.442,0.439 -0.241,0 -0.45,-0.199 -0.463,-0.439 -0.508,0.078 -1.032,0.639 -1.393,1.295 l 0,3.375 1.097,0 0,0.441 -2.563,0 0,-0.441 0.972,0 0,-4.67 -0.972,0 0,-0.443 1.441,0 0,1.244 c 0.414,-0.736 1.094,-1.336 1.668,-1.336 0.427,0 0.655,0.252 0.655,0.535 z"
               id="path131"
               inkscape:connector-curvature="0"
               style="fill:#404041" /><path
               d="m -235.027,339.543 c 0,0.24 -0.173,0.439 -0.441,0.439 -0.241,0 -0.455,-0.199 -0.469,-0.439 -0.508,0.078 -1.025,0.639 -1.387,1.295 l 0,3.375 1.093,0 0,0.441 -2.561,0 0,-0.441 0.971,0 0,-4.67 -0.971,0 0,-0.443 1.438,0 0,1.244 c 0.419,-0.736 1.096,-1.336 1.673,-1.336 0.424,0 0.654,0.252 0.654,0.535 z"
               id="path133"
               inkscape:connector-curvature="0"
               style="fill:#404041" /><path
               d="m -234.32,341.881 c 0,-1.605 1.175,-2.873 2.802,-2.873 1.654,0 2.804,1.256 2.804,2.873 0,1.598 -1.163,2.867 -2.804,2.867 -1.644,0 -2.802,-1.256 -2.802,-2.867 z m 5.084,0 c 0,-1.391 -0.935,-2.434 -2.282,-2.434 -1.336,0 -2.282,1.043 -2.282,2.434 0,1.396 0.946,2.424 2.282,2.424 1.347,0 2.282,-1.028 2.282,-2.424 z"
               id="path135"
               inkscape:connector-curvature="0"
               style="fill:#404041" /></g></g><path
           d="m -190.782,281.784 c -0.432,-0.768 -2.298,-1.033 -5.696,-2.5 -0.466,-0.2 -0.932,-0.433 -1.229,-0.835 -0.269,-0.364 -0.337,-0.83 -0.403,-1.297 -0.216,-1.993 -0.238,-4.179 -1.132,-5.915 -2.276,2.167 -4.768,4.179 -7.45,6.007 -5.177,3.553 -11.53,6.087 -14.825,7.271 -0.554,1.222 -1.176,2.403 -1.946,3.496 -2.465,3.5 -6.162,5.865 -9.327,8.697 -7.795,6.897 -11.786,15.325 -12.452,25.719 -0.031,0.766 0.085,4.264 -1.936,4.34 -2.333,0.088 -4.917,-3.102 -6.003,-4.779 -0.346,-0.531 -0.372,-0.615 -0.492,-0.717 -0.082,-0.07 -0.372,-0.154 -0.452,0.688 -0.128,1.391 -0.062,2.435 0.078,3.498 0.382,2.887 2.165,4.773 4.745,6.475 0.675,0.447 3.101,1.795 6.237,2.217 0.932,0.123 2.464,0.158 2.464,0.158 l 18.436,0 1.485,0 6.062,0 c -0.163,-5.441 -4.793,-5.525 -5.381,-5.58 0.632,-2.236 0.932,-4.564 0.869,-6.865 0.873,-0.4 1.816,-0.973 2.639,-1.695 0.744,5.039 1.482,7.457 1.61,8.164 0.134,0.707 0.7,4.014 1.388,5.094 0.394,0.719 1.366,0.793 1.816,0.797 0.241,0.004 1.3,0.059 2.354,0 l 4.442,0 c 0.128,-4.758 -4.361,-5.533 -4.658,-5.629 -1.563,-6.965 3.499,-13.559 4.73,-20.557 0.966,-5.498 -0.497,-11.094 -0.701,-16.692 -0.031,-0.732 0,-1.562 0.501,-2.096 0.366,-0.4 0.932,-0.566 1.469,-0.668 3.161,-0.567 6.728,0.333 9.057,-0.567 2.769,-1.164 4.501,-4.831 3.701,-6.229 z"
           id="path137"
           inkscape:connector-curvature="0"
           style="fill:#404041" /></g></g></g><g
     inkscape:groupmode="layer"
     id="layer3"
     inkscape:label="lomo"><rect
       x="-35.433067"
       y="-3.0789039e-07"
       width="35.433067"
       height="779.52747"
       id="rect7"
       style="fill:#404041" /><g
       id="g139"
       transform="matrix(1.0910569,0,0,1.0910569,-3.2616663,87.641557)"><g
         enable-background="new    "
         id="g141"><path
           d="m -15.921,538.544 c 0.232,-0.116 0.524,-0.162 0.861,-0.162 l 3.853,0 0,-1.152 0.891,0 0,1.152 1.502,0 0.395,0.993 -1.897,0 0,1.914 -0.891,0 0,-1.914 -3.705,0 c -0.207,0 -0.35,0.03 -0.485,0.101 -0.219,0.116 -0.319,0.351 -0.319,0.733 0,0.363 0.176,0.816 0.379,1.165 l -0.962,-0.13 c -0.176,-0.323 -0.35,-0.761 -0.35,-1.328 0,-0.659 0.248,-1.129 0.728,-1.372 z"
           id="path143"
           inkscape:connector-curvature="0"
           style="fill:#f8f8f8" /><path
           d="m -11.015,547.242 c -0.395,0 -0.747,-0.307 -0.747,-0.703 0,-0.377 0.251,-0.64 0.524,-0.742 -0.13,-0.469 -0.685,-1.035 -1.312,-1.34 l -3.107,0 0,1.162 -0.876,0 0,-3.167 0.876,0 0,0.993 4.45,0 0,-0.993 0.891,0 0,1.957 -1.417,0 c 0.863,0.481 1.535,1.228 1.535,1.897 0,0.616 -0.394,0.936 -0.817,0.936 z"
           id="path145"
           inkscape:connector-curvature="0"
           style="fill:#f8f8f8" /><path
           d="m -15.656,548.029 0,1.049 4.45,0 0,-1.049 0.891,0 0,2.057 -5.341,0 0,1.053 -0.876,0 0,-3.109 0.876,0 z m 7.735,0.608 c 0.441,0 0.817,0.383 0.817,0.824 0,0.417 -0.376,0.786 -0.817,0.786 -0.439,0 -0.803,-0.38 -0.803,-0.804 -10e-4,-0.437 0.364,-0.806 0.803,-0.806 z"
           id="path147"
           inkscape:connector-curvature="0"
           style="fill:#f8f8f8" /><path
           d="m -12.228,556.379 c 0,-0.383 0.263,-0.674 0.643,-0.674 0.104,0 0.234,0.018 0.349,0.072 0.149,-0.216 0.222,-0.626 0.222,-1.094 0,-0.861 -0.455,-1.357 -0.907,-1.357 -0.538,0 -0.728,0.567 -0.991,1.59 -0.306,1.254 -0.658,2.307 -1.868,2.307 -1.181,0 -1.868,-1.155 -1.868,-2.482 0,-0.905 0.292,-1.825 0.714,-2.249 0.219,-0.219 0.468,-0.331 0.773,-0.331 0.367,0 0.688,0.26 0.688,0.622 0,0.396 -0.265,0.673 -0.644,0.673 -0.13,0 -0.246,-0.044 -0.376,-0.103 -0.163,0.205 -0.352,0.715 -0.352,1.388 0,0.848 0.364,1.515 0.962,1.515 0.571,0 0.79,-0.581 1.008,-1.474 0.376,-1.5 0.73,-2.434 1.88,-2.434 0.935,0 1.798,0.879 1.798,2.362 0,0.834 -0.261,1.575 -0.642,1.955 -0.22,0.219 -0.453,0.321 -0.714,0.321 -0.396,10e-4 -0.675,-0.262 -0.675,-0.607 z"
           id="path149"
           inkscape:connector-curvature="0"
           style="fill:#f8f8f8" /><path
           d="m -15.921,559.424 c 0.232,-0.116 0.524,-0.157 0.861,-0.157 l 3.853,0 0,-1.155 0.891,0 0,1.155 1.502,0 0.395,0.991 -1.897,0 0,1.911 -0.891,0 0,-1.911 -3.705,0 c -0.207,0 -0.35,0.027 -0.485,0.1 -0.219,0.116 -0.319,0.352 -0.319,0.732 0,0.365 0.176,0.82 0.379,1.169 l -0.962,-0.134 c -0.176,-0.317 -0.35,-0.759 -0.35,-1.326 0,-0.657 0.248,-1.125 0.728,-1.375 z"
           id="path151"
           inkscape:connector-curvature="0"
           style="fill:#f8f8f8" /><path
           d="m -13.715,564.343 c -1.372,0.15 -2.044,1.053 -2.044,2.393 0,0.834 0.265,1.459 0.687,2.19 l -0.977,-0.089 c -0.398,-0.643 -0.6,-1.445 -0.6,-2.231 0,-1.986 1.312,-3.312 3.211,-3.312 1.721,0 3.24,1.152 3.24,3.049 0,1.852 -1.388,2.848 -2.934,2.848 -0.234,0 -0.422,-0.014 -0.583,-0.059 l 0,-4.789 z m 0.802,0.016 0,3.808 c 1.094,-0.071 1.853,-0.7 1.853,-1.883 -10e-4,-0.95 -0.672,-1.781 -1.853,-1.925 z"
           id="path153"
           inkscape:connector-curvature="0"
           style="fill:#f8f8f8" /></g><g
         id="g155"><path
           d="m -18.914,505.832 0,1.065 7.969,0 0,-1.065 0.485,0 0,1.59 -1.01,0 c 0.646,0.554 1.111,1.304 1.111,2.264 0,1.633 -1.285,2.891 -3.122,2.891 -1.753,0 -3.155,-1.21 -3.155,-2.992 0,-0.817 0.352,-1.59 0.844,-2.144 l -3.123,0 0,1.164 -0.478,0 0,-2.772 0.479,0 z m 5.433,6.191 c 1.548,0 2.64,-0.966 2.64,-2.369 0,-0.928 -0.468,-1.645 -1.125,-2.213 l -3.31,0 c -0.499,0.535 -0.875,1.239 -0.875,2.157 0.001,1.431 1.151,2.407 2.67,2.425 z"
           id="path157"
           inkscape:connector-curvature="0"
           style="fill:#f8f8f8" /><path
           d="m -13.554,514.488 c -1.693,0.059 -2.596,1.078 -2.596,2.611 0,0.816 0.273,1.477 0.695,2.114 l -0.552,-0.043 c -0.395,-0.586 -0.629,-1.345 -0.629,-2.131 0,-1.85 1.239,-3.107 3.155,-3.107 1.719,0 3.122,1.193 3.122,2.873 0,1.739 -1.358,2.702 -2.845,2.702 -0.149,0 -0.265,-0.016 -0.351,-0.043 l 0,-4.976 z m 0.468,0.012 0,4.452 c 1.251,-0.058 2.246,-0.79 2.246,-2.189 0,-1.169 -0.904,-2.129 -2.246,-2.263 z"
           id="path159"
           inkscape:connector-curvature="0"
           style="fill:#f8f8f8" /><path
           d="m -10.944,524.861 c -0.262,0 -0.481,-0.189 -0.481,-0.483 0,-0.263 0.219,-0.492 0.481,-0.506 -0.086,-0.556 -0.699,-1.128 -1.415,-1.522 l -3.69,0 0,1.199 -0.483,0 0,-2.803 0.483,0 0,1.063 5.105,0 0,-1.063 0.485,0 0,1.576 -1.36,0 c 0.805,0.453 1.461,1.196 1.461,1.823 0,0.467 -0.277,0.716 -0.586,0.716 z"
           id="path161"
           inkscape:connector-curvature="0"
           style="fill:#f8f8f8" /><path
           d="m -10.944,529.824 c -0.262,0 -0.481,-0.189 -0.481,-0.481 0,-0.263 0.219,-0.497 0.481,-0.513 -0.086,-0.556 -0.699,-1.121 -1.415,-1.516 l -3.69,0 0,1.194 -0.483,0 0,-2.8 0.483,0 0,1.062 5.105,0 0,-1.062 0.485,0 0,1.572 -1.36,0 c 0.805,0.459 1.461,1.198 1.461,1.829 0,0.464 -0.277,0.715 -0.586,0.715 z"
           id="path163"
           inkscape:connector-curvature="0"
           style="fill:#f8f8f8" /><path
           d="m -13.5,530.598 c 1.755,0 3.141,1.285 3.141,3.062 0,1.808 -1.374,3.065 -3.141,3.065 -1.748,0 -3.136,-1.271 -3.136,-3.065 10e-4,-1.797 1.375,-3.062 3.136,-3.062 z m 0,5.556 c 1.52,0 2.659,-1.021 2.659,-2.494 0,-1.46 -1.14,-2.494 -2.659,-2.494 -1.528,0 -2.65,1.034 -2.65,2.494 0,1.473 1.123,2.494 2.65,2.494 z"
           id="path165"
           inkscape:connector-curvature="0"
           style="fill:#f8f8f8" /></g></g><text
       id="text29"
       transform="matrix(0,1,-1,0,0,0)"
       x="69.953049"
       y="21.627361"><tspan
         style="font-style:normal;font-variant:normal;font-weight:bold;font-stretch:normal;font-size:13.74999809px;font-family:Roboto;-inkscape-font-specification:'Roboto Bold';fill:#b3b3b3"
         id="tspan31"
         font-size="11.4383"
         y="21.627361"
         x="69.953049">El cuerpo como espacio político en Enfermario</tspan></text>
</g><g
     inkscape:groupmode="layer"
     id="layer1"
     inkscape:label="portada"
     style="display:inline"><rect
       width="513.77948"
       height="779.52747"
       id="rect3"
       x="0.00094902818"
       y="-3.0789045e-07"
       style="fill:#f8f8f8" /><rect
       x="73.750076"
       y="211.46355"
       width="25.000025"
       height="26.250027"
       id="rect9"
       style="fill:#b3b3b3" /><rect
       style="fill:none"
       id="rect13"
       height="290.82156"
       width="364.92538"
       y="229.73233"
       x="83.81884" /><text
       sodipodi:linespacing="88%"
       id="text8200"
       y="288.67651"
       x="84.535866"
       style="font-style:normal;font-weight:normal;font-size:39.99999237px;line-height:87.99999952%;font-family:Sans;letter-spacing:0px;word-spacing:0px;fill:#404041;fill-opacity:1;stroke:none;stroke-width:1px;stroke-linecap:butt;stroke-linejoin:miter;stroke-opacity:1"
       xml:space="preserve"><tspan
         style="font-style:normal;font-variant:normal;font-weight:bold;font-stretch:normal;font-size:81.87499237px;line-height:87.99999952%;font-family:'Bebas Neue';-inkscape-font-specification:'Bebas Neue Bold';letter-spacing:-1.26999986px;fill:#404041;fill-opacity:1"
         id="tspan8206"
         y="288.67651"
         x="84.535866"
         sodipodi:role="line">eL TÍTULO</tspan><tspan
         style="font-style:normal;font-variant:normal;font-weight:bold;font-stretch:normal;font-size:81.87499237px;line-height:87.99999952%;font-family:'Bebas Neue';-inkscape-font-specification:'Bebas Neue Bold';letter-spacing:-1.26999986px;fill:#404041;fill-opacity:1"
         y="360.7265"
         x="84.535866"
         sodipodi:role="line"
         id="tspan8226">DE ALGUNA</tspan><tspan
         style="font-style:normal;font-variant:normal;font-weight:bold;font-stretch:normal;font-size:81.87499237px;line-height:87.99999952%;font-family:'Bebas Neue';-inkscape-font-specification:'Bebas Neue Bold';letter-spacing:-1.26999986px;fill:#404041;fill-opacity:1"
         y="432.77649"
         x="84.535866"
         sodipodi:role="line"
         id="tspan8228">OBRA</tspan><tspan
         style="font-style:normal;font-variant:normal;font-weight:300;font-stretch:normal;font-size:81.87499237px;line-height:87.99999952%;font-family:'Bebas Neue';-inkscape-font-specification:'Bebas Neue Light';letter-spacing:-1.26999986px;fill:#404041;fill-opacity:1"
         id="tspan8208"
         y="504.82651"
         x="84.535866"
         sodipodi:role="line">rESALTE</tspan></text>
<text
       style="font-size:14.29788971px;font-family:Roboto-Black;fill:#b3b3b3"
       id="text45"
       font-size="11.4383"
       x="379.50839"
       y="52.679768"><tspan
         id="tspan8196"
         style="font-style:normal;font-variant:normal;font-weight:normal;font-stretch:normal;font-family:Roboto;-inkscape-font-specification:Roboto">colección beta </tspan></text>
<text
       style="font-size:14.29788971px;font-family:Roboto-Black;fill:#b3b3b3"
       id="text51"
       font-size="11.4383"
       x="23.947775"
       y="52.679768"><tspan
         id="tspan8194"
         style="font-style:normal;font-variant:normal;font-weight:normal;font-stretch:normal;font-family:Roboto;-inkscape-font-specification:Roboto">2016</tspan></text>
<text
       font-size="11.4383"
       id="text53"
       style="font-size:14.29788971px;font-family:Roboto-Black;fill:#b3b3b3"
       x="85.838707"
       y="528.19366"><tspan
         style="font-style:normal;font-variant:normal;font-weight:normal;font-stretch:normal;font-family:Roboto;-inkscape-font-specification:Roboto"
         id="tspan8188">Nombre y apellido del autor</tspan></text>
<g
       id="g55"
       transform="matrix(1.2500014,0,0,1.2500014,0,17.71336)"><g
         id="g57"><g
           id="g59"><path
             d="m 192.392,539.778 c 0.593,-0.529 1.223,-1.041 1.831,-1.535 1.418,-1.148 2.884,-2.338 3.936,-3.829 0.286,-0.405 0.536,-0.838 0.77,-1.283 -0.145,0.047 -0.228,0.073 -0.234,0.076 -0.12,0.042 -0.26,0.066 -0.401,0.066 -0.526,0 -0.973,-0.344 -1.038,-0.797 -0.088,-0.482 0.348,-0.842 0.881,-1.228 l 1.877,-1.449 c -0.576,-0.845 -1.045,-1.707 -1.426,-2.625 -0.549,-1.303 -1.068,-2.532 -0.969,-3.863 0.175,-2.94 3.01,-4.898 4.688,-5.804 0.834,-0.471 2.588,-1.456 4.469,-1.456 0.5,0 0.979,0.073 1.426,0.215 -2.971,-4.566 -8.115,-7.588 -13.968,-7.588 -9.201,0 -16.659,7.459 -16.659,16.656 0,7.935 5.547,14.567 12.974,16.246 0.574,-0.618 1.184,-1.221 1.843,-1.802 z"
             id="path61"
             inkscape:connector-curvature="0"
             style="fill:#404041" /></g><g
           id="g63"><path
             d="m 215.951,520.78 c -0.041,0 -0.137,0.017 -0.336,0.132 l -2.672,1.575 c -0.098,0.057 -0.211,0.07 -0.316,0.036 -0.105,-0.033 -0.191,-0.11 -0.238,-0.211 -0.443,-0.984 -0.961,-1.856 -1.578,-2.669 l -0.029,-0.033 c -0.828,-1.073 -1.547,-1.996 -2.566,-2.455 -0.475,-0.216 -1.004,-0.323 -1.57,-0.323 -1.678,0 -3.309,0.919 -4.092,1.358 -1.24,0.671 -4.128,2.508 -4.287,5.172 -0.085,1.15 0.375,2.243 0.908,3.509 0.408,0.976 0.916,1.887 1.559,2.785 0.123,0.17 0.088,0.407 -0.078,0.536 l -2.182,1.682 c -0.407,0.296 -0.537,0.433 -0.57,0.497 0.026,0.052 0.117,0.121 0.262,0.121 0.052,0 0.103,-0.008 0.155,-0.027 0.074,-0.023 5.986,-1.852 10.453,-4.916 2.705,-1.849 5.094,-3.989 7.105,-6.366 0.145,-0.167 0.184,-0.328 0.148,-0.365 -0.039,-0.038 -0.058,-0.038 -0.076,-0.038 z"
             id="path65"
             inkscape:connector-curvature="0"
             style="fill:#404041" /></g><g
           id="g67"><g
             enable-background="new    "
             id="g69"><path
               d="m 196.497,569.954 c -0.066,-0.133 -0.093,-0.3 -0.093,-0.492 l 0,-2.202 -0.658,0 0,-0.509 0.658,0 0,-0.858 0.567,-0.226 0,1.084 1.094,0 0,0.509 -1.094,0 0,2.117 c 0,0.118 0.018,0.2 0.058,0.277 0.066,0.125 0.2,0.183 0.419,0.183 0.208,0 0.467,-0.101 0.666,-0.217 l -0.074,0.55 c -0.185,0.101 -0.435,0.2 -0.759,0.2 -0.377,0 -0.646,-0.141 -0.784,-0.416 z"
               id="path71"
               inkscape:connector-curvature="0"
               style="fill:#404041" /><path
               d="m 201.467,567.15 c 0,0.226 -0.176,0.427 -0.402,0.427 -0.215,0 -0.365,-0.143 -0.424,-0.3 -0.268,0.074 -0.592,0.392 -0.766,0.75 l 0,1.775 0.664,0 0,0.501 -1.809,0 0,-0.501 0.567,0 0,-2.543 -0.567,0 0,-0.509 1.118,0 0,0.81 c 0.275,-0.493 0.701,-0.877 1.084,-0.877 0.351,10e-4 0.535,0.226 0.535,0.467 z"
               id="path73"
               inkscape:connector-curvature="0"
               style="fill:#404041" /><path
               d="m 201.916,569.803 0.6,0 0,-2.543 -0.6,0 0,-0.509 1.176,0 0,3.052 0.602,0 0,0.501 -1.777,0 0,-0.501 z m 0.348,-4.42 c 0,-0.252 0.219,-0.467 0.471,-0.467 0.238,0 0.449,0.215 0.449,0.467 0,0.251 -0.217,0.459 -0.459,0.459 -0.25,0 -0.461,-0.208 -0.461,-0.459 z"
               id="path75"
               inkscape:connector-curvature="0"
               style="fill:#404041" /><path
               d="m 206.688,567.844 c -0.219,0 -0.385,-0.15 -0.385,-0.367 0,-0.06 0.01,-0.134 0.041,-0.199 -0.123,-0.085 -0.357,-0.127 -0.625,-0.127 -0.492,0 -0.775,0.26 -0.775,0.518 0,0.308 0.324,0.416 0.908,0.567 0.717,0.175 1.318,0.376 1.318,1.067 0,0.675 -0.66,1.067 -1.418,1.067 -0.518,0 -1.043,-0.167 -1.285,-0.408 -0.125,-0.125 -0.189,-0.268 -0.189,-0.441 0,-0.21 0.148,-0.393 0.355,-0.393 0.227,0 0.385,0.151 0.385,0.368 0,0.074 -0.025,0.141 -0.059,0.215 0.117,0.093 0.408,0.201 0.793,0.201 0.484,0 0.865,-0.208 0.865,-0.55 0,-0.326 -0.332,-0.451 -0.842,-0.576 -0.857,-0.215 -1.391,-0.417 -1.391,-1.074 0,-0.534 0.502,-1.027 1.35,-1.027 0.477,0 0.9,0.149 1.117,0.367 0.125,0.126 0.184,0.259 0.184,0.408 0,0.225 -0.15,0.384 -0.347,0.384 z"
               id="path77"
               inkscape:connector-curvature="0"
               style="fill:#404041" /><path
               d="m 208.428,569.954 c -0.066,-0.133 -0.09,-0.3 -0.09,-0.492 l 0,-2.202 -0.66,0 0,-0.509 0.66,0 0,-0.858 0.566,-0.226 0,1.084 1.092,0 0,0.509 -1.092,0 0,2.117 c 0,0.118 0.016,0.2 0.057,0.277 0.066,0.125 0.201,0.183 0.418,0.183 0.209,0 0.469,-0.101 0.668,-0.217 l -0.076,0.55 c -0.182,0.101 -0.434,0.2 -0.758,0.2 -0.375,0 -0.643,-0.141 -0.785,-0.416 z"
               id="path79"
               inkscape:connector-curvature="0"
               style="fill:#404041" /><path
               d="m 211.238,568.693 c 0.086,0.784 0.602,1.168 1.367,1.168 0.477,0 0.834,-0.151 1.252,-0.393 l -0.051,0.558 c -0.367,0.228 -0.826,0.343 -1.275,0.343 -1.135,0 -1.893,-0.75 -1.893,-1.835 0,-0.983 0.658,-1.852 1.742,-1.852 1.059,0 1.627,0.793 1.627,1.677 0,0.134 -0.008,0.241 -0.033,0.333 l -2.736,0 z m 0.01,-0.458 2.176,0 c -0.041,-0.625 -0.4,-1.059 -1.076,-1.059 -0.543,10e-4 -1.018,0.384 -1.1,1.059 z"
               id="path81"
               inkscape:connector-curvature="0"
               style="fill:#404041" /></g><g
             id="g83"><path
               d="m 177.804,571.664 0.608,0 0,-4.554 -0.608,0 0,-0.277 0.908,0 0,0.577 c 0.316,-0.369 0.745,-0.635 1.294,-0.635 0.933,0 1.651,0.734 1.651,1.784 0,1.002 -0.691,1.803 -1.71,1.803 -0.467,0 -0.908,-0.201 -1.225,-0.482 l 0,1.784 0.665,0 0,0.273 -1.584,0 0,-0.273 z m 3.537,-3.104 c 0,-0.885 -0.552,-1.509 -1.354,-1.509 -0.53,0 -0.94,0.268 -1.265,0.643 l 0,1.892 c 0.306,0.285 0.708,0.5 1.232,0.5 0.819,-10e-4 1.377,-0.658 1.387,-1.526 z"
               id="path85"
               inkscape:connector-curvature="0"
               style="fill:#404041" /><path
               d="m 182.75,568.602 c 0.033,0.968 0.616,1.483 1.492,1.483 0.467,0 0.844,-0.156 1.208,-0.398 l -0.024,0.315 c -0.335,0.226 -0.769,0.359 -1.218,0.359 -1.058,0 -1.775,-0.708 -1.775,-1.803 0,-0.982 0.682,-1.784 1.642,-1.784 0.994,0 1.544,0.776 1.544,1.626 0,0.085 -0.009,0.151 -0.024,0.2 l -2.845,0 z m 0.007,-0.268 2.544,0 c -0.033,-0.715 -0.451,-1.283 -1.251,-1.283 -0.668,0 -1.217,0.516 -1.293,1.283 z"
               id="path87"
               inkscape:connector-curvature="0"
               style="fill:#404041" /><path
               d="m 188.678,567.11 c 0,0.149 -0.108,0.274 -0.276,0.274 -0.15,0 -0.281,-0.125 -0.289,-0.274 -0.317,0.049 -0.645,0.399 -0.87,0.808 l 0,2.108 0.685,0 0,0.276 -1.601,0 0,-0.276 0.607,0 0,-2.917 -0.607,0 0,-0.277 0.9,0 0,0.777 c 0.259,-0.46 0.684,-0.835 1.042,-0.835 0.266,10e-4 0.409,0.16 0.409,0.336 z"
               id="path89"
               inkscape:connector-curvature="0"
               style="fill:#404041" /><path
               d="m 191.514,567.11 c 0,0.149 -0.108,0.274 -0.275,0.274 -0.15,0 -0.284,-0.125 -0.293,-0.274 -0.317,0.049 -0.641,0.399 -0.866,0.808 l 0,2.108 0.683,0 0,0.276 -1.6,0 0,-0.276 0.607,0 0,-2.917 -0.607,0 0,-0.277 0.898,0 0,0.777 c 0.262,-0.46 0.685,-0.835 1.045,-0.835 0.264,10e-4 0.408,0.16 0.408,0.336 z"
               id="path91"
               inkscape:connector-curvature="0"
               style="fill:#404041" /><path
               d="m 191.955,568.57 c 0,-1.003 0.734,-1.795 1.751,-1.795 1.033,0 1.752,0.785 1.752,1.795 0,0.999 -0.726,1.792 -1.752,1.792 -1.027,0 -1.751,-0.785 -1.751,-1.792 z m 3.176,0 c 0,-0.868 -0.584,-1.52 -1.426,-1.52 -0.835,0 -1.425,0.651 -1.425,1.52 0,0.873 0.591,1.515 1.425,1.515 0.842,0 1.426,-0.642 1.426,-1.515 z"
               id="path93"
               inkscape:connector-curvature="0"
               style="fill:#404041" /></g></g><path
           d="m 219.154,531.027 c -0.27,-0.479 -1.436,-0.646 -3.559,-1.561 -0.291,-0.125 -0.582,-0.271 -0.768,-0.522 -0.168,-0.227 -0.211,-0.518 -0.252,-0.81 -0.135,-1.245 -0.148,-2.61 -0.707,-3.695 -1.422,1.354 -2.979,2.61 -4.654,3.753 -3.234,2.22 -7.203,3.803 -9.262,4.542 -0.346,0.764 -0.734,1.502 -1.215,2.185 -1.54,2.186 -3.85,3.664 -5.827,5.433 -4.87,4.309 -7.363,9.574 -7.779,16.067 -0.02,0.478 0.053,2.664 -1.209,2.711 -1.458,0.056 -3.072,-1.938 -3.75,-2.985 -0.216,-0.332 -0.232,-0.385 -0.308,-0.448 -0.051,-0.044 -0.232,-0.097 -0.282,0.43 -0.08,0.869 -0.039,1.521 0.049,2.185 0.238,1.803 1.353,2.983 2.964,4.045 0.422,0.279 1.938,1.121 3.897,1.385 0.582,0.077 1.539,0.099 1.539,0.099 l 11.518,0 0.928,0 3.787,0 c -0.102,-3.399 -2.994,-3.451 -3.361,-3.486 0.395,-1.396 0.582,-2.852 0.543,-4.288 0.545,-0.251 1.135,-0.608 1.648,-1.06 0.465,3.148 0.926,4.658 1.006,5.101 0.084,0.441 0.438,2.507 0.867,3.182 0.246,0.449 0.854,0.495 1.135,0.498 0.15,0.002 0.812,0.036 1.471,0 l 2.775,0 c 0.08,-2.972 -2.725,-3.456 -2.91,-3.517 -0.977,-4.351 2.186,-8.471 2.955,-12.842 0.604,-3.435 -0.311,-6.931 -0.438,-10.428 -0.02,-0.457 0,-0.977 0.312,-1.31 0.229,-0.25 0.582,-0.354 0.918,-0.417 1.975,-0.354 4.203,0.208 5.658,-0.354 1.729,-0.729 2.811,-3.02 2.311,-3.893 z"
           id="path95"
           inkscape:connector-curvature="0"
           style="fill:#404041" /></g></g></g></svg>