<?xml version="1.0" encoding="utf-8"?>
<!-- Generator: Adobe Illustrator 16.0.0, SVG Export Plug-In . SVG Version: 6.00 Build 0)  -->
<!DOCTYPE svg PUBLIC "-//W3C//DTD SVG 1.1//EN" "http://www.w3.org/Graphics/SVG/1.1/DTD/svg11.dtd">
<svg version="1.1" id="Layer_1" xmlns="http://www.w3.org/2000/svg" xmlns:xlink="http://www.w3.org/1999/xlink" x="0px" y="0px"
	 width="100px" height="100px" viewBox="0 0 100 100" enable-background="new 0 0 100 100" xml:space="preserve">
<g>
	<g>
		<path fill="#9D9F90" d="M42.75,48.824c0.724-0.647,1.494-1.271,2.239-1.875c1.734-1.405,3.527-2.859,4.814-4.685
			c0.348-0.497,0.656-1.023,0.939-1.567c-0.176,0.057-0.279,0.089-0.288,0.091c-0.147,0.052-0.318,0.082-0.489,0.082
			c-0.645,0-1.19-0.418-1.27-0.974c-0.108-0.59,0.424-1.029,1.078-1.501l2.295-1.772c-0.703-1.035-1.277-2.089-1.747-3.212
			c-0.67-1.591-1.303-3.096-1.182-4.723c0.213-3.595,3.683-5.991,5.731-7.098c1.022-0.575,3.165-1.78,5.465-1.78
			c0.613,0,1.198,0.089,1.746,0.263c-3.633-5.585-9.926-9.281-17.084-9.281c-11.252,0-20.373,9.121-20.373,20.372
			c0,9.703,6.785,17.815,15.867,19.867C41.196,50.271,41.946,49.536,42.75,48.824z"/>
	</g>
	<g>
		<path fill="#434345" d="M71.563,25.59c-0.05,0-0.169,0.021-0.411,0.16l-3.27,1.928c-0.116,0.069-0.258,0.085-0.387,0.044
			c-0.129-0.041-0.234-0.135-0.29-0.259c-0.543-1.202-1.175-2.27-1.931-3.264l-0.033-0.042c-1.016-1.31-1.893-2.441-3.14-3.001
			c-0.582-0.261-1.229-0.394-1.923-0.394c-2.051,0-4.046,1.122-5.005,1.662c-1.516,0.819-5.047,3.068-5.24,6.326
			c-0.104,1.405,0.458,2.742,1.11,4.291c0.498,1.192,1.122,2.306,1.907,3.404c0.148,0.209,0.105,0.499-0.098,0.655l-2.667,2.058
			c-0.498,0.36-0.658,0.528-0.699,0.607c0.031,0.063,0.146,0.149,0.32,0.149c0.063,0,0.127-0.011,0.192-0.034
			c0.09-0.028,7.32-2.267,12.783-6.014c3.308-2.259,6.229-4.878,8.687-7.785c0.179-0.204,0.228-0.401,0.183-0.446
			C71.606,25.59,71.584,25.59,71.563,25.59z"/>
	</g>
	<g>
		<g enable-background="new    ">
			<path fill="#9D9F90" d="M47.77,85.728c-0.082-0.163-0.112-0.367-0.112-0.602v-2.693h-0.806v-0.622h0.806v-1.05l0.694-0.275v1.325
				h1.336v0.622h-1.336v2.591c0,0.144,0.021,0.245,0.071,0.337c0.082,0.153,0.245,0.225,0.51,0.225c0.255,0,0.571-0.123,0.816-0.266
				l-0.092,0.674c-0.225,0.122-0.53,0.244-0.929,0.244C48.27,86.237,47.943,86.064,47.77,85.728z"/>
			<path fill="#9D9F90" d="M53.849,82.301c0,0.274-0.215,0.52-0.49,0.52c-0.265,0-0.448-0.173-0.52-0.367
				c-0.327,0.093-0.726,0.48-0.939,0.918v2.173h0.816v0.611h-2.213v-0.611h0.694v-3.111h-0.694v-0.622h1.368V82.8
				c0.336-0.602,0.855-1.07,1.325-1.07C53.623,81.729,53.849,82.005,53.849,82.301z"/>
			<path fill="#9D9F90" d="M54.397,85.544h0.734v-3.111h-0.734v-0.622h1.438v3.733h0.734v0.611h-2.173V85.544z M54.826,80.139
				c0-0.307,0.266-0.571,0.571-0.571c0.296,0,0.551,0.265,0.551,0.571c0,0.306-0.266,0.561-0.562,0.561
				C55.081,80.699,54.826,80.444,54.826,80.139z"/>
			<path fill="#9D9F90" d="M60.232,83.147c-0.266,0-0.47-0.185-0.47-0.449c0-0.071,0.01-0.162,0.051-0.245
				c-0.153-0.102-0.438-0.152-0.766-0.152c-0.602,0-0.947,0.316-0.947,0.633c0,0.377,0.396,0.51,1.111,0.692
				c0.877,0.215,1.611,0.46,1.611,1.306c0,0.826-0.806,1.306-1.734,1.306c-0.632,0-1.274-0.203-1.57-0.499
				c-0.153-0.153-0.234-0.327-0.234-0.541c0-0.256,0.184-0.479,0.438-0.479c0.275,0,0.469,0.184,0.469,0.449
				c0,0.092-0.03,0.173-0.071,0.265c0.143,0.112,0.5,0.245,0.969,0.245c0.592,0,1.062-0.255,1.062-0.673
				c0-0.398-0.409-0.552-1.03-0.704c-1.051-0.265-1.703-0.51-1.703-1.315c0-0.653,0.611-1.255,1.652-1.255
				c0.581,0,1.101,0.183,1.366,0.449c0.153,0.152,0.225,0.315,0.225,0.499C60.66,82.953,60.477,83.147,60.232,83.147z"/>
			<path fill="#9D9F90" d="M62.362,85.728c-0.081-0.163-0.111-0.367-0.111-0.602v-2.693h-0.807v-0.622h0.807v-1.05l0.693-0.275
				v1.325h1.336v0.622h-1.336v2.591c0,0.144,0.021,0.245,0.071,0.337c0.081,0.153,0.245,0.225,0.51,0.225
				c0.255,0,0.571-0.123,0.815-0.266l-0.091,0.674c-0.225,0.122-0.53,0.244-0.929,0.244C62.862,86.237,62.536,86.064,62.362,85.728z
				"/>
			<path fill="#9D9F90" d="M65.799,84.188c0.103,0.959,0.734,1.428,1.673,1.428c0.582,0,1.021-0.184,1.529-0.479l-0.061,0.684
				c-0.448,0.275-1.01,0.418-1.561,0.418c-1.387,0-2.314-0.918-2.314-2.243c0-1.204,0.805-2.265,2.131-2.265
				c1.296,0,1.989,0.969,1.989,2.05c0,0.163-0.011,0.296-0.041,0.408H65.799z M65.81,83.626h2.662
				c-0.051-0.764-0.489-1.295-1.315-1.295C66.493,82.331,65.912,82.8,65.81,83.626z"/>
		</g>
		<g>
			<path fill="#70706B" d="M24.91,87.818h0.744V82.25H24.91v-0.338h1.111v0.705c0.388-0.45,0.908-0.775,1.581-0.775
				c1.142,0,2.02,0.897,2.02,2.183c0,1.224-0.846,2.203-2.091,2.203c-0.571,0-1.112-0.245-1.5-0.592v2.183h0.816v0.336H24.91V87.818
				z M29.234,84.024c0-1.082-0.673-1.846-1.652-1.846c-0.652,0-1.152,0.325-1.55,0.784v2.315c0.378,0.347,0.867,0.612,1.509,0.612
				C28.54,85.891,29.224,85.085,29.234,84.024z"/>
			<path fill="#70706B" d="M30.957,84.075c0.041,1.184,0.755,1.815,1.826,1.815c0.571,0,1.03-0.193,1.479-0.489l-0.03,0.387
				c-0.408,0.275-0.938,0.439-1.489,0.439c-1.295,0-2.172-0.867-2.172-2.203c0-1.204,0.836-2.183,2.009-2.183
				c1.214,0,1.887,0.948,1.887,1.989c0,0.101-0.01,0.183-0.031,0.244H30.957z M30.967,83.749h3.111
				c-0.041-0.878-0.55-1.57-1.53-1.57C31.732,82.179,31.059,82.811,30.967,83.749z"/>
			<path fill="#70706B" d="M38.208,82.25c0,0.183-0.133,0.336-0.336,0.336c-0.183,0-0.347-0.153-0.357-0.336
				c-0.387,0.062-0.785,0.489-1.061,0.989v2.58h0.837v0.336h-1.958v-0.336h0.745V82.25h-0.745v-0.338h1.102v0.95
				c0.316-0.562,0.836-1.021,1.274-1.021C38.034,81.842,38.208,82.035,38.208,82.25z"/>
			<path fill="#70706B" d="M41.675,82.25c0,0.183-0.132,0.336-0.336,0.336c-0.184,0-0.347-0.153-0.357-0.336
				c-0.388,0.062-0.786,0.489-1.061,0.989v2.58h0.836v0.336h-1.958v-0.336h0.745V82.25h-0.745v-0.338H39.9v0.95
				c0.317-0.562,0.836-1.021,1.275-1.021C41.501,81.842,41.675,82.035,41.675,82.25z"/>
			<path fill="#70706B" d="M42.215,84.034c0-1.224,0.897-2.192,2.142-2.192c1.265,0,2.142,0.958,2.142,2.192
				c0,1.225-0.888,2.193-2.142,2.193S42.215,85.269,42.215,84.034z M46.101,84.034c0-1.061-0.714-1.855-1.744-1.855
				c-1.02,0-1.744,0.795-1.744,1.855c0,1.07,0.724,1.856,1.744,1.856C45.387,85.891,46.101,85.104,46.101,84.034z"/>
		</g>
	</g>
	<path fill="#434345" d="M75.48,38.122c-0.331-0.585-1.756-0.789-4.353-1.909c-0.356-0.153-0.713-0.331-0.941-0.637
		c-0.203-0.28-0.255-0.636-0.306-0.993c-0.164-1.522-0.18-3.194-0.865-4.519c-1.74,1.653-3.643,3.19-5.691,4.59
		c-3.957,2.713-8.809,4.648-11.326,5.554c-0.423,0.935-0.9,1.836-1.486,2.672c-1.884,2.673-4.709,4.479-7.127,6.644
		c-5.956,5.269-9.004,11.707-9.514,19.649c-0.025,0.584,0.064,3.258-1.477,3.316c-1.786,0.067-3.759-2.37-4.588-3.652
		c-0.263-0.407-0.282-0.471-0.374-0.548c-0.063-0.054-0.286-0.12-0.346,0.523c-0.099,1.063-0.049,1.864,0.058,2.675
		c0.292,2.204,1.654,3.648,3.626,4.946c0.516,0.34,2.369,1.371,4.766,1.693c0.71,0.095,1.879,0.12,1.879,0.12h14.086h1.135h4.632
		c-0.123-4.156-3.661-4.22-4.109-4.265c0.483-1.705,0.713-3.486,0.662-5.243c0.668-0.306,1.39-0.742,2.018-1.296
		c0.568,3.851,1.131,5.698,1.231,6.239c0.101,0.54,0.534,3.065,1.059,3.892c0.301,0.551,1.044,0.604,1.389,0.608
		c0.184,0.002,0.993,0.044,1.798,0h3.396c0.095-3.635-3.334-4.227-3.561-4.302c-1.197-5.319,2.672-10.358,3.614-15.705
		c0.737-4.198-0.383-8.475-0.535-12.75c-0.025-0.561,0-1.196,0.382-1.604c0.28-0.305,0.713-0.433,1.12-0.509
		c2.418-0.433,5.142,0.254,6.923-0.433C74.769,41.991,76.092,39.191,75.48,38.122z"/>
	<path fill="#70706B" d="M44.357,42.812c-8.63,0-16.096-4.96-19.718-12.183c-0.004,0.178-0.013,0.355-0.013,0.534
		c0,9.703,6.785,17.815,15.867,19.867c0.703-0.758,1.453-1.494,2.257-2.206c0.724-0.647,1.494-1.271,2.239-1.875
		c1.734-1.405,3.527-2.859,4.814-4.685c0.036-0.051,0.066-0.105,0.101-0.156C48.131,42.566,46.272,42.812,44.357,42.812z"/>
</g>
</svg>
